<svg width="48" height="48" viewBox="0 0 48 48" fill="none" xmlns="http://www.w3.org/2000/svg">
<rect x="48" y="48" width="48" height="48" rx="5" transform="rotate(-180 48 48)" fill="#FFDBC6"/>
<path d="M26.4301 32.8546L30.6381 28.6427C31.0778 28.2026 31.0775 27.4894 30.6374 27.0497C30.1973 26.61 29.4841 26.6103 29.0444 27.0504L24.8367 31.262C24.3975 31.7012 23.6829 31.7012 23.2438 31.262C23.2421 31.2603 23.2404 31.2587 23.2388 31.2571L18.9744 27.0452C18.5318 26.608 17.8186 26.6124 17.3814 27.055C17.1646 27.2745 17.0564 27.5606 17.0564 27.8465C17.0564 28.1371 17.1682 28.4276 17.3913 28.6479L21.6535 32.8577C22.9713 34.1726 25.113 34.1716 26.4301 32.8546Z" fill="#FF8B44"/>
<path d="M25.1686 27.0581L25.1686 15.0617C25.1686 14.4396 24.6643 13.9353 24.0422 13.9353C23.4201 13.9353 22.9158 14.4396 22.9158 15.0617L22.9158 27.058C22.9158 27.6802 23.4201 28.1845 24.0422 28.1845C24.6643 28.1845 25.1686 27.6802 25.1686 27.0581Z" fill="#FF8B44"/>
</svg>
