<svg width="48" height="48" viewBox="0 0 48 48" fill="none" xmlns="http://www.w3.org/2000/svg">
<rect width="48" height="48" rx="5" fill="#FDCFE7"/>
<path d="M21.5699 15.1454L17.3619 19.3573C16.9222 19.7974 16.9225 20.5106 17.3626 20.9503C17.8027 21.39 18.5159 21.3897 18.9556 20.9496L23.1633 16.738C23.6025 16.2988 24.3171 16.2988 24.7562 16.738C24.7579 16.7396 24.7596 16.7413 24.7612 16.7429L29.0256 20.9548C29.4682 21.392 30.1814 21.3876 30.6186 20.945C30.8354 20.7255 30.9436 20.4394 30.9436 20.1535C30.9436 19.8629 30.8318 19.5724 30.6087 19.352L26.3465 15.1423C25.0287 13.8274 22.887 13.8284 21.5699 15.1454Z" fill="#EF2993"/>
<path d="M22.8314 20.9419L22.8314 32.9383C22.8314 33.5604 23.3357 34.0647 23.9578 34.0647C24.5799 34.0647 25.0842 33.5604 25.0842 32.9383L25.0842 20.9419C25.0842 20.3198 24.5799 19.8155 23.9578 19.8155C23.3357 19.8155 22.8314 20.3198 22.8314 20.9419Z" fill="#EF2993"/>
</svg>
